<?xml version="1.0" encoding="UTF-8" standalone="no"?>
<!DOCTYPE svg PUBLIC "-//W3C//DTD SVG 1.1//EN" "http://www.w3.org/Graphics/SVG/1.1/DTD/svg11.dtd">
<svg width="100%" height="100%" viewBox="0 0 906 326" version="1.1" xmlns="http://www.w3.org/2000/svg" xmlns:xlink="http://www.w3.org/1999/xlink" xml:space="preserve" xmlns:serif="http://www.serif.com/" style="fill-rule:evenodd;clip-rule:evenodd;stroke-miterlimit:10;">
    <g transform="matrix(1,0,0,1,-257.953,-27.5335)">
        <g id="g170">
            <g id="g168">
                <ellipse id="ellipse2" cx="361.592" cy="344.014" rx="87.23" ry="8.57" style="fill:rgb(8,11,15);"/>
                <ellipse id="ellipse4" cx="519.874" cy="325.972" rx="38.5" ry="8.57" style="fill:rgb(8,11,15);"/>
                <path id="path8" d="M1163.67,292.31L965.67,288.04L945.08,226.88C951.179,224.622 957.116,221.949 962.85,218.88C974.11,212.61 975.43,196.19 970.67,185.57C967.24,184.26 958.36,183.86 958.36,183.86C959.378,188.693 959.658,193.653 959.19,198.57C958.54,203.57 946.86,209.57 940.25,212.57L916.25,141.23C919.88,139.16 956.09,97.59 956.09,97.59L972.3,97.59L1041.76,175.96L1064.66,164.16L1163.67,292.31Z" style="fill:rgb(27,35,48);fill-rule:nonzero;"/>
                <path id="path10" d="M970.65,185.57C970.65,185.57 981.37,213.57 958.73,221.87C936.09,230.17 864.36,254.27 876.14,265.1C902.83,289.63 1003.43,292.32 1003.43,292.32C1003.43,292.32 996.54,249.89 991.15,231.25L970.65,185.57Z" style="fill:rgb(8,11,15);fill-rule:nonzero;"/>
                <path id="path12" d="M333.548,257.278L351.061,222.041L352.639,239.51L365.477,210.008L368.475,221.291L374.488,201.495L381.25,228.986L391.807,187.451L399.769,221.828L410.861,201.469C410.861,201.469 398.921,207.068 398.921,205.585C398.921,204.103 415.033,176.774 415.033,176.774C415.033,176.774 400.197,183.889 400.19,182.415C400.184,180.941 412.758,165.968 417.05,156.552C421.342,147.135 429.015,114.455 429.015,114.455C429.015,114.455 441.332,154.668 447.905,159.006C450.029,152.564 456.784,134.242 456.784,134.242L443.406,141.826C443.406,141.826 463.565,87.245 466.028,74.897C468.492,62.549 467.914,66.793 472.312,77.564C475.379,86.708 479.024,116.619 490.197,133.62C500.767,146.402 482.606,137.301 482.606,137.301L499.057,177.779L513.511,141.801L522.088,169.743L534.876,133.594L520.423,146.615C520.423,146.615 533.305,122.286 536.052,103.036C538.798,83.785 542.191,53.192 542.191,53.192L560.352,97.752C560.352,97.752 577.684,35.919 578.337,27.533C580.392,57.061 607.872,127.586 607.872,127.586C607.872,127.586 618.555,98.366 619.535,87.535C622.853,98.263 666.107,276.963 666.107,276.963C666.107,276.963 544.114,287.155 496.544,287.368C448.973,287.581 357.785,288.442 349.377,282.17C340.969,275.898 333.548,257.278 333.548,257.278Z" style="fill:rgb(27,35,48);fill-rule:nonzero;"/>
                <path id="path16" d="M543.064,297.002C543.064,297.002 550.524,294.882 551.684,298.612C552.844,302.342 543.064,317.252 543.064,317.252C543.064,317.252 554.254,316.312 554.724,318.642C546.554,319.812 536.914,319.772 536.314,320.222C535.714,320.672 543.064,297.002 543.064,297.002Z" style="fill:rgb(246,106,10);fill-rule:nonzero;"/>
                <path id="path18" d="M566.524,283.302C565.694,281.752 553.524,283.302 553.524,283.302L553.524,275.882C553.524,275.882 562.794,273.182 563.374,271.042C564.834,265.712 553.794,269.692 551.974,270.042C532.503,274.191 518.062,290.906 516.784,310.772C516.563,313.123 516.766,315.494 517.384,317.772C514.964,319.712 511.034,322.122 508.214,320.182C503.854,317.182 517.214,294.722 516.634,284.182C516.154,275.262 508.864,254.612 490.364,254.472C475.524,254.372 467.084,260.472 461.364,273.472C455.644,286.472 452.034,293.162 445.974,292.572C439.914,291.982 437.204,293.072 432.344,283.692C432.814,290.032 437.684,303.032 450.694,302.692C463.704,302.352 469.434,295.992 475.174,290.532C480.914,285.072 490.884,282.932 491.354,290.192C491.824,297.452 485.664,315.192 486.594,321.002C487.524,326.812 490.094,330.132 500.684,329.812C509.684,329.532 515.934,323.292 518.544,320.472C519.591,322.244 521.283,323.545 523.264,324.102C523.583,324.157 523.893,324.258 524.184,324.402C524.884,324.822 522.704,327.962 522.404,328.722C522.104,329.482 536.554,330.062 543.244,329.502C543.944,329.515 544.627,329.281 545.174,328.842C545.433,328.496 545.574,328.075 545.574,327.642C545.574,326.957 545.222,326.319 544.644,325.952C543.694,325.37 542.597,325.072 541.484,325.092L530.244,324.252C535.624,321.083 540.549,317.197 544.884,312.702C547.024,310.492 549.154,307.582 548.374,304.592C547.734,302.192 545.374,300.672 543.284,299.402C542.751,295.46 542.707,291.466 543.154,287.512C543.654,284.312 544.454,282.022 546.404,279.942C546.404,280.012 547.404,289.752 550.224,290.992C553.044,292.232 562.614,286.992 562.614,286.992C562.614,286.992 564.134,290.622 564.544,290.522C564.954,290.422 567.354,284.862 566.524,283.302Z" style="fill:rgb(255,156,87);fill-rule:nonzero;"/>
                <path id="path20" d="M560.004,265.792C558.564,265.012 558.438,262.416 559.538,261.926C560.638,261.436 562.784,261.512 562.724,263.832C563.444,263.462 565.104,263.042 565.484,262.622C564.652,262.184 564.092,261.358 563.994,260.422C563.424,258.102 565.144,257.592 565.994,258.282C566.844,258.972 567.994,260.992 567.474,262.362C570.004,261.042 573.254,261.702 575.664,263.232C578.064,264.837 579.739,267.324 580.324,270.152C580.384,270.818 580.666,271.445 581.124,271.932C582.214,272.792 583.864,271.582 585.124,272.042C586.214,272.422 584.804,276.772 583.834,277.392C581.156,279.095 578.151,280.219 575.014,280.692C572.084,281.122 568.914,280.932 566.474,279.262C565.289,278.417 564.272,277.359 563.474,276.142C560.494,271.712 561.234,270.832 560.004,265.792Z" style="fill:rgb(255,156,87);fill-rule:nonzero;"/>
                <path id="path22" d="M543.934,284.252C541.894,287.009 540.046,289.902 538.404,292.912C535.812,297 533.676,301.359 532.034,305.912C535.746,303.552 539.619,301.454 543.624,299.632L543.284,299.422C542.751,295.48 542.707,291.486 543.154,287.532C543.32,286.419 543.581,285.322 543.934,284.252Z" style="fill:rgb(246,106,10);fill-rule:nonzero;"/>
                <path id="path24" d="M494.064,324.642C493.524,318.982 507.764,306.502 498.344,303.712C497.928,303.582 497.643,303.194 497.643,302.758C497.643,302.592 497.685,302.429 497.764,302.282C500.474,298.532 505.674,295.462 506.994,290.892C508.314,286.322 505.144,282.752 500.994,281.742C499.424,281.362 497.294,281.042 496.144,279.742C494.794,278.252 494.934,275.742 493.064,274.532C490.184,272.702 485.624,274.692 483.064,276.082C478.844,278.322 475.534,282.002 472.204,285.352C466.544,291.052 459.934,298.302 451.384,298.982C441.844,299.752 436.854,292.112 432.484,284.982C433.484,291.632 438.484,303.052 450.694,302.732C463.694,302.402 469.434,296.032 475.174,290.572C480.914,285.112 490.884,282.972 491.354,290.232C491.824,297.492 485.664,315.232 486.594,321.042C487.524,326.852 490.094,330.172 500.684,329.852C501.488,329.819 502.289,329.739 503.084,329.612C498.634,330.182 494.554,329.902 494.064,324.642Z" style="fill:rgb(255,112,0);fill-rule:nonzero;"/>
                <path id="path26" d="M574.824,266.672C576.327,267.713 577.575,269.081 578.474,270.672C580.314,273.672 582.584,274.722 585.474,274.102C585.684,273.102 585.684,272.222 585.214,272.102C583.914,271.642 582.264,272.852 581.214,271.992C580.756,271.505 580.474,270.878 580.414,270.212C579.829,267.384 578.154,264.897 575.754,263.292C574.13,262.242 572.227,261.702 570.294,261.742C569.404,261.972 568.514,262.202 567.624,262.402L567.564,262.402C566.944,262.542 566.324,262.642 565.694,262.722C565.044,262.972 564.414,263.252 563.794,263.552C563.914,263.732 564.044,263.902 564.174,264.062C567.911,263.771 571.645,264.686 574.824,266.672Z" style="fill:rgb(255,209,172);fill-opacity:0.8;fill-rule:nonzero;"/>
                <path id="path28" d="M505.774,267.572C513.174,277.042 513.954,289.742 512.284,301.572C514.624,295.242 516.864,288.672 516.614,284.222C516.134,275.302 508.844,254.652 490.344,254.512L489.344,254.512C495.924,257.332 502.064,262.832 505.774,267.572Z" style="fill:rgb(255,209,172);fill-opacity:0.8;fill-rule:nonzero;"/>
                <path id="path30" d="M541.464,325.112L535.894,324.682C537.074,325.273 538.044,326.213 538.674,327.372C539.07,328.084 539.201,328.913 539.044,329.712C540.594,329.712 542.044,329.622 543.224,329.522C543.924,329.535 544.607,329.301 545.154,328.862C545.413,328.516 545.554,328.095 545.554,327.662C545.554,326.977 545.202,326.339 544.624,325.972C543.674,325.39 542.577,325.092 541.464,325.112Z" style="fill:rgb(246,106,10);fill-rule:nonzero;"/>
                <circle id="circle32" cx="585.094" cy="272.382" r="1.34" style="fill:rgb(47,54,61);"/>
                <path id="path34" d="M543.284,299.392C538.514,299.392 533.454,304.892 531.494,306.552C542.284,299.462 546.184,302.732 546.784,308.052C546.873,308.918 546.826,309.792 546.644,310.642C548.004,308.802 548.934,306.712 548.374,304.582C547.734,302.182 545.774,299.392 543.284,299.392Z" style="fill:rgb(255,209,172);fill-opacity:0.8;fill-rule:nonzero;"/>
                <path id="path36" d="M553.504,283.302L553.504,276.552C552.333,276.792 551.381,277.652 551.024,278.792C550.604,279.792 550.394,283.702 551.024,284.582C552.184,286.122 557.964,284.252 559.824,284.022C562.084,283.705 564.374,283.664 566.644,283.902C566.631,283.695 566.58,283.492 566.494,283.302C565.694,281.752 553.504,283.302 553.504,283.302Z" style="fill:rgb(255,209,172);fill-opacity:0.8;fill-rule:nonzero;"/>
                <path id="path38" d="M408.992,316.594C408.992,316.594 410.722,329.544 414.072,333.144C417.422,336.744 431.362,346.394 432.072,344.544C425.302,336.094 418.072,315.054 418.072,315.054L408.992,316.594Z" style="fill:rgb(255,112,0);fill-rule:nonzero;"/>
                <path id="path40" d="M364.462,317.444C364.308,317.499 364.176,317.6 364.082,317.734C363.922,317.984 364.082,318.304 364.222,318.554C365.794,321.295 367.02,324.221 367.872,327.264C368.492,329.454 369.622,332.484 371.642,331.424C375.152,329.574 372.282,324.964 371.642,321.044C372.042,323.464 379.802,320.664 382.332,317.044C385.572,312.434 377.872,311.754 375.072,312.454C371.462,313.374 367.812,315.864 364.462,317.444Z" style="fill:rgb(255,112,0);fill-rule:nonzero;"/>
                <path id="path42" d="M394.112,289.354C389.452,288.814 384.592,288.984 380.302,290.874C376.182,292.684 372.892,295.934 369.902,299.294C369.044,300.382 368.01,301.318 366.842,302.064C365.651,302.665 364.336,302.977 363.002,302.974C356.742,303.194 350.852,299.694 346.582,295.124C342.312,290.554 339.342,284.944 336.152,279.564C331.032,270.924 324.882,262.404 316.042,257.634C303.792,251.014 287.832,253.084 276.652,261.394C265.472,269.704 258.992,283.454 257.992,297.344C257.772,300.414 258.422,304.344 261.402,305.074L266.052,296.154C268.332,291.764 270.732,287.244 274.622,284.154C278.512,281.064 284.362,279.944 288.402,282.794C291.572,285.034 292.892,289.114 293.302,292.974C293.712,296.834 293.432,300.784 294.302,304.564C296.492,313.754 305.462,320.124 314.732,321.944C321.469,323.256 328.443,322.621 334.832,320.114C345.402,315.954 354.622,306.684 365.952,307.424C367.432,311.424 371.362,314.144 375.482,315.274C379.602,316.404 383.952,316.214 388.222,316.004L382.652,322.674C385.588,328.545 389.52,333.864 394.272,338.394C396.552,332.594 394.682,326.684 391.062,321.594C391.98,319.787 393.471,318.334 395.302,317.464C399.462,319.704 410.512,319.094 415.182,318.464C414.982,321.844 415.692,329.674 417.852,333.014C420.012,336.354 427.022,343.364 431.012,345.524C433.532,346.884 441.262,348.684 442.412,346.394C432.952,342.394 423.532,332.664 423.572,322.394C423.572,317.394 427.922,314.084 427.692,309.844C427.502,306.174 421.532,301.844 418.922,299.784C411.782,294.07 403.19,290.457 394.112,289.354Z" style="fill:rgb(255,156,87);fill-rule:nonzero;"/>
                <path id="path44" d="M341.572,306.394C337.852,306.394 334.012,307.164 331.242,304.184C330.346,302.988 329.556,301.717 328.882,300.384C326.672,297.014 323.972,296.604 320.092,296.834C315.352,297.114 313.712,295.314 311.822,291.064C306.442,279.064 292.822,269.714 279.762,276.704C269.762,282.084 263.612,293.884 260.912,304.534C260.882,304.63 260.839,304.721 260.782,304.804C260.992,304.916 261.213,305.006 261.442,305.074L266.092,296.154C268.372,291.764 270.772,287.244 274.662,284.154C278.552,281.064 284.402,279.944 288.442,282.794C291.612,285.034 292.932,289.114 293.342,292.974C293.752,296.834 293.472,300.784 294.342,304.564C296.532,313.754 305.502,320.124 314.772,321.944C321.509,323.256 328.483,322.621 334.872,320.114C342.392,317.114 349.232,311.624 356.632,308.934C351.992,306.954 346.992,306.374 341.572,306.394Z" style="fill:rgb(255,112,0);fill-rule:nonzero;"/>
                <path id="path46" d="M391.992,302.394C392.212,302.394 400.992,308.304 400.882,311.064C400.772,313.824 392.882,318.114 392.882,318.114C392.882,318.114 396.732,313.184 395.882,310.254C395.032,307.324 391.992,302.394 391.992,302.394Z" style="fill:rgb(255,209,172);fill-opacity:0.6;fill-rule:nonzero;"/>
                <path id="path48" d="M424.992,304.914C424.112,307.914 422.432,310.714 421.682,313.864C420.68,317.778 421.493,321.943 423.892,325.194C423.732,324.266 423.652,323.326 423.652,322.384C423.652,317.384 428.002,314.074 427.772,309.834C427.672,308.234 426.492,306.524 424.992,304.914Z" style="fill:rgb(251,133,50);fill-rule:nonzero;"/>
                <path id="path50" d="M430.992,298.874C433.282,297.964 435.192,300.324 433.572,305.924L436.492,305.994C435.952,304.476 435.767,302.854 435.952,301.254C436.066,299.976 437.15,298.986 438.432,298.986C438.532,298.986 438.632,298.992 438.732,299.004C440.302,299.084 440.852,300.434 440.912,302.004C440.956,303.528 440.612,305.039 439.912,306.394C443.444,308.922 445.338,313.178 444.852,317.494C444.525,318.985 444.292,320.494 444.152,322.014C444.034,323.562 444.812,325.048 446.152,325.834C446.972,326.088 447.812,326.275 448.662,326.394C449.482,326.624 450.322,327.314 450.212,328.164C450.112,328.864 449.432,329.314 448.792,329.634C443.922,332.003 438.227,332.021 433.342,329.684C429.112,327.624 425.702,323.604 425.102,318.944C424.737,315.883 425.649,312.802 427.622,310.434C428.322,309.594 430.572,308.544 430.822,307.554C429.692,305.964 427.902,300.074 430.992,298.874Z" style="fill:rgb(255,156,87);fill-rule:nonzero;"/>
                <circle id="circle52" cx="448.822" cy="327.564" r="1.33" style="fill:rgb(47,54,61);"/>
                <path id="path54" d="M323.332,273.724C328.622,279.724 332.692,286.644 337.782,292.784C342.796,299.023 349.723,303.447 357.492,305.374C358.062,305.294 358.622,305.194 359.192,305.064C353.702,304.564 348.602,301.354 344.792,297.284C340.522,292.704 337.562,287.104 334.372,281.714C329.252,273.074 323.092,264.554 314.252,259.784C308.144,256.583 301.214,255.287 294.362,256.064C305.532,258.234 316.072,265.474 323.332,273.724Z" style="fill:rgb(255,209,172);fill-opacity:0.6;fill-rule:nonzero;"/>
                <path id="path56" d="M410.292,298.614C415.162,301.394 418.952,305.444 422.412,309.784C422.651,308.592 422.985,307.422 423.412,306.284C420.866,303.361 417.944,300.789 414.722,298.634C407.372,293.794 398.862,292.394 390.362,290.954L393.302,292.314C398.922,294.584 404.992,295.604 410.292,298.614Z" style="fill:rgb(255,209,172);fill-opacity:0.6;fill-rule:nonzero;"/>
                <path id="path126" d="M896.17,132C880.87,140.93 864.22,145.81 844.98,150.39C826.293,154.661 807.389,157.92 788.35,160.15L829,103.78L884.42,79.87L908.22,116C908.22,116 905.08,120.3 896.17,132Z" style="fill:rgb(8,11,15);fill-rule:nonzero;"/>
                <path id="path128" d="M947.18,210.33C926.49,219.6 736.18,272.33 685.05,275.13L773.55,166.28L790.11,166.28C806.66,166.28 823.79,161.96 838.57,160.1C853.35,158.24 889.2,149.1 905.81,135.03C910.65,130.88 916.21,120.3 916.21,120.3L957.53,182.07C957.53,182.07 967.87,201.07 947.18,210.33Z" style="fill:rgb(8,11,15);fill-rule:nonzero;"/>
                <path id="polygon130" d="M848.91,125.2L849.65,108.03L834.93,121.33L834.93,108.03L814.19,133.25L828.97,103.78L867.61,43.01L896.17,99.71L881.42,94.33L873.3,121.33L862.57,99.71L848.91,125.2Z" style="fill:rgb(39,50,68);fill-rule:nonzero;"/>
                <ellipse id="ellipse6" cx="693.81" cy="325.09" rx="99.97" ry="16.1" style="fill:rgb(8,11,15);"/>
                <path id="path14" d="M728.273,268.807C728.273,268.807 838.533,258.907 852.273,249.287" style="fill:none;fill-rule:nonzero;stroke:rgb(225,228,232);stroke-width:2px;"/>
                <path id="path64" d="M692.42,73.79C688.74,60.94 678.1,55.95 674.28,55.18C674.215,55.168 674.149,55.161 674.082,55.161C673.506,55.161 673.032,55.635 673.032,56.211C673.032,56.305 673.045,56.399 673.07,56.49L677.75,73.79C677.75,73.79 667.96,87.36 667.96,101.68C667.96,116 669.43,121.48 667.96,125.88C665.239,134.26 666.453,143.436 671.26,150.82C678.628,162.703 689.928,171.64 703.19,176.07" style="fill:none;fill-rule:nonzero;stroke:rgb(30,149,158);stroke-width:2.5px;"/>
                <path id="path66" d="M673.63,55.16C673.63,55.16 682.43,45.31 703.89,52.97C718.899,46.103 736.051,45.522 751.49,51.36C777.49,61.18 784.6,77.13 784.6,77.13" style="fill:none;fill-rule:nonzero;stroke:rgb(30,149,158);stroke-width:2.5px;"/>
                <path id="path68" d="M760.41,88.04C760.41,88.04 776.63,74.14 790.54,77.11C803.67,87.27 795.17,113.53 792.08,117.39" style="fill:none;fill-rule:nonzero;stroke:rgb(30,149,158);stroke-width:2.5px;"/>
                <path id="path70" d="M771.61,86.88C771.61,86.88 783.04,80.06 785.52,82.66C788.44,85.73 787.28,102.59 786.29,108.9" style="fill:none;fill-rule:nonzero;stroke:rgb(30,149,158);stroke-width:2.5px;"/>
                <path id="path72" d="M667.96,101.68C667.96,101.68 669.26,83.36 678.96,86.49C688.66,89.62 693.96,110.05 704.41,112.76C714.86,115.47 753.07,103.52 766.59,115.09C780.11,126.66 773.93,140.18 771.59,144.81C769.25,149.44 761.96,161.16 761.96,161.16C761.96,161.16 771.58,170.16 751.5,176.72" style="fill:none;fill-rule:nonzero;stroke:rgb(30,149,158);stroke-width:2.5px;"/>
                <path id="path74" d="M795.59,108.9C795.59,108.9 800.21,136.1 788.15,152.54C775.15,170.24 747.01,182.64 720.79,179.86" style="fill:none;fill-rule:nonzero;stroke:rgb(30,149,158);stroke-width:2.5px;"/>
                <path id="path76" d="M721.52,182.67C721.52,182.67 719.73,174.4 712.25,173.86C704.77,173.32 686.62,185.61 677.25,200.02C667.88,214.43 669.51,221.11 680.02,228.89C688.02,234.78 707.96,239.1 726.11,237.24L748.01,235.07C749.179,235.52 750.038,236.541 750.28,237.77C750.28,239.2 746.88,249.39 752.5,250.23C758.12,251.07 758.96,246.92 758.96,242.77C763.73,239.97 774.53,233.77 775.03,216.13C775.53,198.49 762.33,187.63 747.45,189.87C732.57,192.11 708.45,201.38 694.95,198.3" style="fill:none;fill-rule:nonzero;stroke:rgb(30,149,158);stroke-width:2.5px;"/>
                <path id="path78" d="M714.96,183.14C714.96,183.14 707.36,192.07 707.23,198.55" style="fill:none;fill-rule:nonzero;stroke:rgb(30,149,158);stroke-width:2.5px;"/>
                <path id="line80" d="M734.39,192.7L726.14,180.27" style="fill:none;fill-rule:nonzero;stroke:rgb(30,149,158);stroke-width:2.5px;"/>
                <path id="line82" d="M723.1,185.66L724.98,195.06" style="fill:none;fill-rule:nonzero;stroke:rgb(30,149,158);stroke-width:2.5px;"/>
                <g id="ellipse84" transform="matrix(0.5,-0.866025,0.866025,0.5,0,0)">
                    <ellipse cx="213.806" cy="682.622" rx="2.74" ry="6.58" style="fill:none;stroke:rgb(30,149,158);stroke-width:2.5px;"/>
                </g>
                <path id="path86" d="M701.55,176.07C701.55,176.07 647.34,191.36 622.72,203.59C598.1,215.82 543.66,246.51 545.92,255.09C548.18,263.67 593.82,247 608.51,240.49C625.01,233.17 672.94,207.92 672.94,207.92" style="fill:none;fill-rule:nonzero;stroke:rgb(30,149,158);stroke-width:2.5px;"/>
                <path id="path88" d="M692.77,234.44C692.77,234.44 674.08,257.5 663.16,264.14C652.58,270.58 623.3,286.05 621.05,290.21C617.7,296.39 613.74,317.99 635.25,329.01C644.6,333.8 666.5,335.4 675.62,330.15C684.74,324.9 684.41,322.78 683.38,321.94C681.01,320.01 656.81,333.85 646.17,332.32" style="fill:none;fill-rule:nonzero;stroke:rgb(30,149,158);stroke-width:2.5px;"/>
                <path id="path90" d="M639.65,298.62C640.43,297.84 663.04,294.72 672.49,303.22C680.15,310.13 679.49,322.47 678.3,322.88" style="fill:none;fill-rule:nonzero;stroke:rgb(30,149,158);stroke-width:2.5px;"/>
                <path id="path92" d="M672.49,303.22C672.49,303.22 690.71,293.45 703.22,274.7C710.867,263.148 717.016,250.671 721.52,237.57" style="fill:none;fill-rule:nonzero;stroke:rgb(30,149,158);stroke-width:2.5px;"/>
                <path id="path94" d="M726.14,237.24L747.66,310.15C747.66,310.15 754,323.67 764.45,322.88C774.9,322.09 795.82,314.94 804.67,303.22C809.06,297.41 814.32,287.41 812.13,283.93C809.7,280.07 806.47,281.93 804.6,282.59C801.9,281.59 783.3,280.07 777.89,289.59" style="fill:none;fill-rule:nonzero;stroke:rgb(30,149,158);stroke-width:2.5px;"/>
                <path id="path96" d="M757.39,248.99C757.39,248.99 773.61,283.93 780.98,295.51" style="fill:none;fill-rule:nonzero;stroke:rgb(30,149,158);stroke-width:2.5px;"/>
                <path id="path98" d="M789.4,150.68C789.4,150.68 830.04,128.94 844.86,124.36C859.68,119.78 879.651,106.694 886.951,114.624C894.251,122.554 852.922,120.402 870.908,139.265C877.498,152.265 830.184,159.439 828.072,153.504C824.923,144.654 836.238,136.508 850.736,132.271C854.716,131.108 861.178,129.356 866.364,130.276" style="fill:none;fill-rule:nonzero;stroke:rgb(30,149,158);stroke-width:2.5px;"/>
                <path id="path100" d="M727.57,180.24C727.57,180.24 745.34,183.89 771.57,179.04C797.8,174.19 833.851,155.483 833.851,155.483" style="fill:none;fill-rule:nonzero;stroke:rgb(30,149,158);stroke-width:2.5px;"/>
                <path id="path102" d="M648.63,107.56C659.74,112.12 667.8,125.56 667.8,125.56" style="fill:none;fill-rule:nonzero;stroke:rgb(30,149,158);stroke-width:2.5px;stroke-linecap:round;"/>
                <path id="path104" d="M648.63,121.01C653.94,121.39 663.14,124.86 666.72,130.42" style="fill:none;fill-rule:nonzero;stroke:rgb(30,149,158);stroke-width:2.5px;stroke-linecap:round;"/>
                <path id="path106" d="M770.67,161.97C777.67,162.77 797.55,172.25 803.07,179.7" style="fill:none;fill-rule:nonzero;stroke:rgb(30,149,158);stroke-width:2.5px;"/>
                <path id="path108" d="M799.85,176.36C801.041,177.357 802.121,178.48 803.07,179.71" style="fill:none;fill-rule:nonzero;stroke:rgb(30,149,158);stroke-width:2.5px;stroke-linecap:round;"/>
                <path id="path110" d="M772.57,166.93C777.85,169.99 788.57,180.27 791.39,187.67" style="fill:none;fill-rule:nonzero;stroke:rgb(30,149,158);stroke-width:2.5px;stroke-linecap:round;"/>
                <g id="ellipse112" transform="matrix(0.866025,-0.5,0.5,0.866025,0,0)">
                    <ellipse cx="386.758" cy="493.262" rx="22.06" ry="3.95" style="fill:none;stroke:rgb(30,149,158);stroke-width:2.5px;"/>
                </g>
                <g id="ellipse114" transform="matrix(0.906971,-0.421194,0.421194,0.906971,0,0)">
                    <ellipse cx="486.857" cy="452.933" rx="19.84" ry="2.87" style="fill:none;stroke:rgb(30,149,158);stroke-width:2.5px;"/>
                </g>
                <path id="path116" d="M689.51,186.12C687.37,187.22 682.16,189.47 680.04,190.24C670.69,193.65 662.77,195.45 662.33,194.24C661.89,193.03 669.13,189.33 678.47,185.92C683.847,183.923 689.412,182.475 695.08,181.6" style="fill:none;fill-rule:nonzero;stroke:rgb(30,149,158);stroke-width:2.5px;"/>
                <path id="path118" d="M733.63,262.6C733.63,262.6 736.01,265.86 737.72,265.35C739.43,264.84 739.95,253.35 737.72,246.51C735.49,239.67 732.23,236.63 731.72,236.68" style="fill:none;fill-rule:nonzero;stroke:rgb(30,149,158);stroke-width:2.5px;"/>
                <path id="path120" d="M738.18,278.03C738.37,278.66 745.36,278.43 749.46,292.41C753.56,306.39 752.59,314.36 749.46,313.27" style="fill:none;fill-rule:nonzero;stroke:rgb(30,149,158);stroke-width:2.5px;"/>
                <path id="path122" d="M827.02,148.64C816.48,148.64 802.02,160.11 803.02,161.97C805.02,165.79 823.84,160.34 823.84,160.34" style="fill:none;fill-rule:nonzero;stroke:rgb(30,149,158);stroke-width:2.5px;"/>
                <path id="path124" d="M764.56,180.18C764.56,180.18 796.41,169.18 797.64,165.94C798.87,162.7 774.53,165.62 773.55,166.28" style="fill:none;fill-rule:nonzero;stroke:rgb(30,149,158);stroke-width:2.5px;"/>
                <path id="path144" d="M1032.94,330.7C1032.94,330.7 1037.59,282.7 1035.8,275.93C1034.73,279.86 1015.4,311.01 1015.4,311.01L1015.4,280.58C1015.4,280.58 1011.1,294.58 1009.67,298.84C1008.24,292.39 998.22,273.06 999.67,275.21C1001.12,277.36 1001.46,297.76 999.67,297.76C998.24,297.41 992.87,278.76 987.5,272.7C989.64,274.85 991.08,290.6 992.87,298.48C992.15,295.62 977.64,285.59 970.67,284.16C971.39,288.81 981.77,297.41 983.92,303.49C986.07,309.57 982.48,316.38 982.48,316.38L995.73,326.29L1032.94,330.7Z" style="fill:rgb(27,35,48);fill-rule:nonzero;"/>
                <path id="path146" d="M1008.15,330.21C1007.81,329.21 1015.56,304.26 1015.56,304.26C1015.56,304.26 1038.47,290.11 1042.56,287.75C1046.65,285.39 1052.33,285.75 1052.33,285.75L1064.79,281.04C1064.79,281.04 1099.16,290.13 1100.17,290.47C1101.18,290.81 1107.24,301.92 1109.94,305.63C1112.64,309.34 1113.94,311.69 1114.32,317.76L1114.66,323.82L1096.46,343.36L1075.57,343.36C1075.57,343.36 1060.75,349.09 1057.38,348.08C1054.01,347.07 1041.88,344.08 1037.5,340.33C1033.12,336.58 1008.15,330.21 1008.15,330.21Z" style="fill:rgb(39,50,68);fill-rule:nonzero;"/>
                <path id="path148" d="M1053.54,289.94C1053.54,289.94 1051.68,272.57 1068.04,253.94" style="fill:none;fill-rule:nonzero;stroke:rgb(39,50,68);stroke-width:2px;"/>
                <circle id="circle150" cx="1069.05" cy="252.69" r="2.32" style="fill:none;stroke:rgb(39,50,68);stroke-width:2px;"/>
                <circle id="circle152" cx="1078.25" cy="258.52" r="2.1" style="fill:none;stroke:rgb(39,50,68);stroke-width:2px;"/>
                <path id="path154" d="M1060.2,264.92C1060.2,264.92 1064.76,267.59 1068.89,264.92C1071.61,263.139 1074.21,261.199 1076.7,259.11" style="fill:none;fill-rule:nonzero;stroke:rgb(39,50,68);stroke-width:2px;"/>
                <path id="path156" d="M1037.23,272.69C1036.39,270.16 1036.17,267.464 1036.58,264.83C1036.84,263.6 1037.64,262.19 1038.91,262.24C1039.49,262.309 1040.04,262.565 1040.46,262.97C1041.49,263.828 1042.43,264.79 1043.26,265.84C1049.72,273.569 1054.6,282.496 1057.62,292.11C1057.24,287.34 1059.77,282.67 1063.39,279.54C1067.01,276.41 1071.61,274.64 1076.25,273.45C1077.98,273 1080.07,272.72 1081.32,273.99C1082.13,274.918 1082.39,276.215 1081.98,277.38C1081.58,278.516 1080.89,279.529 1079.98,280.32C1077.85,282.104 1075.52,283.631 1073.04,284.87C1067.86,287.812 1062.94,291.191 1058.34,294.97C1057.95,295.361 1057.45,295.634 1056.91,295.76C1056.57,295.787 1056.23,295.747 1055.91,295.64C1046.15,293.18 1039.76,281.67 1037.23,272.69Z" style="fill:rgb(27,35,48);fill-opacity:0.5;fill-rule:nonzero;"/>
                <path id="path158" d="M1046.5,321.48C1051.74,316.545 1057.47,312.162 1063.6,308.4C1067.95,309.28 1071.89,308.57 1075.21,309.07C1082.21,302.89 1090.42,295.71 1097.59,289.73C1096.17,289.346 1094.26,288.835 1092.08,288.252C1081.63,285.461 1064.83,281.02 1064.83,281.02L1052.36,285.73C1052.36,285.73 1046.63,285.4 1042.59,287.73C1039.36,289.62 1024.12,299.01 1018.1,302.73C1021.9,308.51 1040.51,317 1046.5,321.48Z" style="fill:rgb(36,46,63);fill-rule:nonzero;"/>
                <path id="path162" d="M940.7,114.68C941.41,112.53 964.76,85.62 964.76,85.62L990.56,117.87L986.26,117.87L997.73,130.05C997.73,130.05 982.68,131.48 980.53,127.18C979.05,130.28 974.84,135.65 973.03,135.05C971.22,134.45 961.41,121.82 961.41,121.82C961.41,121.82 951.41,139.82 949.98,139.26C948.55,138.7 945,116 945,116L939.17,121.11L942.29,116.04L940.7,114.68Z" style="fill:rgb(39,50,68);fill-rule:nonzero;"/>
                <path id="path164" d="M1097.59,289.73C1089.38,287.51 1064.83,281.02 1064.83,281.02L1052.36,285.73C1052.36,285.73 1046.63,285.4 1042.59,287.73C1039.36,289.62 1024.12,299.01 1018.1,302.73" style="fill:none;fill-rule:nonzero;stroke:rgb(48,62,84);stroke-width:0.5px;"/>
                <path id="path166" d="M430.092,302.604C432.972,302.354 431.362,307.484 433.032,308.094C434.292,308.544 435.902,307.554 437.482,308.244C439.042,309.003 440.303,310.264 441.062,311.824C442.212,313.984 442.112,316.054 442.002,318.414C441.862,321.554 442.132,324.704 445.702,325.614C444.608,324.75 443.999,323.406 444.072,322.014C444.212,320.494 444.445,318.985 444.772,317.494C445.258,313.178 443.364,308.922 439.832,306.394C440.532,305.039 440.876,303.528 440.832,302.004C440.772,300.434 440.222,299.084 438.652,299.004C438.552,298.992 438.452,298.986 438.352,298.986C437.07,298.986 435.986,299.976 435.872,301.254C435.687,302.854 435.872,304.476 436.412,305.994L433.492,305.924C435.112,300.324 433.202,297.924 430.912,298.874C429.452,299.444 429.102,301.104 429.252,302.874C429.507,302.718 429.795,302.626 430.092,302.604Z" style="fill:rgb(255,209,172);fill-opacity:0.6;fill-rule:nonzero;"/>
            </g>
            <g transform="matrix(1,0,0,1,257.953,27.5335)">
                <path d="M326.101,233.874C326.535,234.443 325.224,236.514 323.49,236.666C314.317,237.267 305.496,239.653 297.809,237.069C295.896,236.427 299.449,234.952 302.023,234.105C307.675,233.78 320.223,229.756 326.101,233.874Z" style="fill:rgb(239,223,131);stroke:rgb(211,196,113);stroke-width:2px;stroke-linecap:round;stroke-linejoin:round;stroke-miterlimit:1.5;"/>
            </g>
            <g transform="matrix(1,0,0,1,257.953,27.5335)">
                <path d="M319.974,232.976C319.272,229.417 317.11,224.717 309.237,225.344C301.837,225.933 300.184,230.636 302.019,235.271" style="fill:rgb(239,223,131);stroke:rgb(211,196,113);stroke-width:2px;stroke-linecap:round;stroke-linejoin:round;stroke-miterlimit:1.5;"/>
            </g>
            <g transform="matrix(1,0,0,1,257.476,27.8195)">
                <path d="M316.572,233.673C316.216,227.912 310.793,226.307 305.607,226.141" style="fill:none;stroke:rgb(211,196,113);stroke-width:2px;stroke-linecap:round;stroke-linejoin:round;stroke-miterlimit:1.5;"/>
            </g>
            <g transform="matrix(1.02501,0.407451,-0.422471,1.0628,216.414,-66.1764)">
                <path d="M326.101,233.874C326.535,234.443 325.224,236.514 323.49,236.666C314.317,237.267 305.496,239.653 297.809,237.069C295.896,236.427 299.449,234.952 302.023,234.105C307.675,233.78 320.223,229.756 326.101,233.874Z" style="fill:rgb(239,223,131);stroke:rgb(211,196,113);stroke-width:1.78px;stroke-linecap:round;stroke-linejoin:round;stroke-miterlimit:1.5;"/>
            </g>
            <g transform="matrix(1.02501,0.407451,-0.422471,1.0628,216.414,-66.1764)">
                <path d="M319.974,232.976C319.272,229.417 317.11,224.717 309.237,225.344C301.837,225.933 300.184,230.636 302.019,235.271" style="fill:rgb(239,223,131);stroke:rgb(211,196,113);stroke-width:1.78px;stroke-linecap:round;stroke-linejoin:round;stroke-miterlimit:1.5;"/>
            </g>
            <g transform="matrix(1.02501,0.407451,-0.422471,1.0628,215.804,-66.0666)">
                <path d="M316.572,233.673C316.216,227.912 310.793,226.307 305.607,226.141" style="fill:none;stroke:rgb(211,196,113);stroke-width:1.78px;stroke-linecap:round;stroke-linejoin:round;stroke-miterlimit:1.5;"/>
            </g>
        </g>
    </g>
</svg>
